<?xml version="1.0" standalone="no"?>
<!DOCTYPE svg PUBLIC "-//W3C//DTD SVG 20010904//EN"
 "http://www.w3.org/TR/2001/REC-SVG-20010904/DTD/svg10.dtd">
<svg version="1.0" xmlns="http://www.w3.org/2000/svg"
 width="139.000000pt" height="145.000000pt" viewBox="0 0 139.000000 145.000000"
 preserveAspectRatio="xMidYMid meet">

<g transform="translate(0.000000,145.000000) scale(0.100000,-0.100000)"
fill="none" stroke="#faaa32" stroke-width="10">
<path d="M0 725 l0 -725 695 0 695 0 0 725 0 725 -695 0 -695 0 0 -725z m196
580 c21 -31 15 -53 -19 -79 -26 -19 -30 -19 -55 -5 -33 18 -42 68 -17 93 25
25 72 20 91 -9z m128 9 c43 -43 -5 -120 -60 -96 -13 7 -29 23 -36 36 -24 55
53 103 96 60z m142 -9 c21 -32 7 -69 -30 -87 -55 -24 -103 53 -60 96 25 25 71
20 90 -9z m126 8 c41 -37 3 -111 -50 -98 -50 12 -68 61 -35 97 20 22 61 23 85
1z m402 1 c43 -43 -5 -120 -60 -96 -13 7 -29 23 -36 36 -24 55 53 103 96 60z
m142 -9 c21 -32 7 -69 -30 -87 -34 -15 -76 12 -76 49 0 60 74 87 106 38z
m-946 -125 c55 -55 -24 -135 -82 -83 -25 23 -23 68 4 87 30 21 54 20 78 -4z
m128 4 c44 -31 17 -104 -39 -104 -36 0 -63 37 -53 74 11 44 52 58 92 30z m137
-9 c30 -29 31 -49 5 -75 -24 -24 -63 -26 -84 -4 -24 23 -20 70 6 88 31 22 45
20 73 -9z m133 9 c43 -30 17 -104 -36 -104 -56 0 -81 61 -42 100 24 24 48 25
78 4z m138 -9 c51 -51 -11 -120 -77 -85 -28 15 -26 74 3 94 31 22 45 20 74 -9z
m394 15 c46 -25 26 -110 -27 -110 -58 0 -86 73 -41 104 26 18 42 20 68 6z
m138 -6 c44 -31 17 -104 -39 -104 -57 0 -78 89 -26 110 32 13 40 12 65 -6z
m-1063 -148 c22 -33 10 -71 -26 -86 -59 -25 -106 44 -62 92 24 26 69 23 88 -6z
m129 8 c43 -43 -5 -120 -60 -96 -13 7 -29 23 -36 36 -24 55 53 103 96 60z
m268 -1 c41 -37 3 -111 -50 -98 -50 12 -68 61 -35 97 20 22 61 23 85 1z m123
11 c27 -11 38 -53 21 -80 -35 -52 -106 -33 -106 29 0 18 5 38 12 45 13 13 47
16 73 6z m420 -18 c22 -33 10 -71 -26 -86 -59 -25 -106 44 -62 92 24 26 69 23
88 -6z m130 8 c25 -25 16 -75 -17 -93 -25 -14 -29 -14 -55 5 -34 26 -40 48
-19 79 19 29 66 34 91 9z m-1068 -142 c17 -23 16 -43 -3 -70 -31 -44 -104 -17
-104 39 0 54 73 75 107 31z m121 12 c44 -31 17 -104 -39 -104 -28 0 -59 30
-59 58 0 17 45 62 62 62 8 0 24 -7 36 -16z m272 -4 c24 -24 26 -57 3 -82 -33
-37 -103 -11 -103 39 0 28 33 63 60 63 11 0 29 -9 40 -20z m136 -5 c51 -51
-11 -120 -77 -85 -28 15 -26 74 3 94 31 22 45 20 74 -9z m399 0 c29 -28 31
-42 9 -73 -18 -26 -60 -29 -86 -5 -25 23 -23 68 4 87 31 22 45 20 73 -9z m133
9 c44 -31 17 -104 -39 -104 -57 0 -78 83 -27 108 32 15 40 14 66 -4z m-1062
-150 c37 -55 -25 -117 -80 -80 -49 31 -24 106 35 106 20 0 34 -8 45 -26z m128
7 c43 -47 -13 -121 -68 -91 -34 18 -43 53 -22 85 20 31 65 34 90 6z m268 2
c10 -9 18 -27 18 -40 0 -28 -33 -63 -60 -63 -26 0 -60 34 -60 62 0 50 63 76
102 41z m130 5 c27 -22 30 -53 7 -81 -23 -31 -45 -34 -77 -11 -28 19 -31 78
-4 93 24 14 55 13 74 -1z m413 -12 c21 -31 11 -69 -22 -87 -54 -29 -109 45
-67 92 24 27 70 25 89 -5z m129 5 c43 -47 -13 -121 -68 -91 -34 18 -43 53 -22
85 20 31 65 34 90 6z m-1076 -131 c26 -24 28 -47 6 -78 -29 -42 -104 -18 -104
35 0 27 33 63 58 63 10 0 28 -9 40 -20z m130 4 c26 -18 30 -65 6 -88 -23 -24
-70 -20 -88 6 -21 30 -20 47 6 75 25 27 45 29 76 7z m272 -4 c24 -24 26 -57 3
-82 -33 -37 -103 -11 -103 39 0 28 33 63 60 63 11 0 29 -9 40 -20z m136 -5
c25 -26 26 -52 2 -82 -13 -16 -70 -17 -86 -1 -21 21 -15 75 10 92 31 22 45 20
74 -9z m408 -8 c19 -26 19 -30 5 -55 -18 -33 -68 -42 -93 -17 -24 24 -20 71 7
90 30 21 56 16 81 -18z m124 17 c44 -31 17 -104 -39 -104 -29 0 -59 31 -59 59
0 20 40 61 60 61 8 0 26 -7 38 -16z m-1062 -150 c37 -55 -25 -117 -80 -80 -49
31 -24 106 35 106 20 0 34 -8 45 -26z m126 9 c46 -41 -1 -118 -60 -97 -37 13
-50 55 -28 88 19 30 60 35 88 9z m270 0 c25 -23 23 -68 -4 -87 -30 -21 -54
-20 -78 4 -55 55 24 136 82 83z m130 5 c27 -22 30 -53 7 -81 -37 -49 -99 -24
-99 39 0 48 53 72 92 42z m414 -13 c36 -55 -25 -117 -80 -81 -49 31 -24 106
35 106 19 0 34 -8 45 -25z m126 8 c27 -24 23 -69 -8 -89 -55 -37 -117 25 -80
80 19 30 60 35 88 9z m-1087 -125 c52 -24 35 -108 -22 -108 -58 0 -86 73 -41
104 27 19 30 19 63 4z m143 -4 c26 -18 30 -65 6 -88 -23 -24 -70 -20 -88 6
-22 31 -20 45 9 73 28 29 42 31 73 9z m137 -9 c29 -28 31 -42 9 -73 -18 -26
-65 -30 -88 -6 -24 23 -20 70 6 88 31 22 45 20 73 -9z m135 5 c55 -55 -24
-136 -82 -83 -24 22 -23 58 4 83 28 25 52 26 78 0z m136 -5 c40 -40 13 -95
-47 -95 -50 0 -71 59 -34 96 31 31 50 30 81 -1z m399 0 c29 -28 31 -42 9 -73
-18 -26 -60 -29 -86 -5 -25 23 -23 68 4 87 31 22 45 20 73 -9z m133 9 c26 -18
30 -65 6 -88 -8 -9 -29 -16 -44 -16 -58 0 -79 83 -28 108 32 15 40 14 66 -4z
m-936 -141 c27 -24 23 -69 -8 -89 -34 -23 -74 -9 -87 29 -19 59 49 102 95 60z
m138 -3 c23 -23 24 -30 8 -65 -24 -54 -108 -35 -108 25 0 56 60 80 100 40z
m132 3 c25 -23 23 -68 -4 -87 -30 -21 -54 -20 -78 4 -55 55 24 136 82 83z
m130 5 c27 -22 30 -53 7 -81 -23 -31 -45 -34 -77 -11 -28 19 -31 78 -4 93 24
14 55 13 74 -1z m540 -5 c27 -24 23 -69 -8 -89 -55 -37 -117 25 -80 80 19 30
60 35 88 9z"/>
</g>
</svg>
